<?xml version="1.0" encoding="UTF-8" standalone="no"?>
<!DOCTYPE svg PUBLIC "-//W3C//DTD SVG 1.1//EN" "http://www.w3.org/Graphics/SVG/1.1/DTD/svg11.dtd">
<!-- Created with Vectornator (http://vectornator.io/) -->
<svg height="100%" stroke-miterlimit="10" style="fill-rule:nonzero;clip-rule:evenodd;stroke-linecap:round;stroke-linejoin:round;" version="1.1" viewBox="581.719 430 756.562 220" width="100%" xml:space="preserve" xmlns="http://www.w3.org/2000/svg" xmlns:vectornator="http://vectornator.io" xmlns:xlink="http://www.w3.org/1999/xlink">
<defs/>
<g id="Layer">
<g opacity="1">
<path d="M665.25 430C656.867 430 648.858 432.428 641.312 436.781C633.762 441.137 627.662 446.862 623.469 454.125L612.937 472.375C611.911 474.154 612.502 476.442 614.281 477.469C616.06 478.496 618.348 477.873 619.375 476.094L629.906 457.844C633.4 451.793 638.55 446.958 645.031 443.219C651.509 439.481 658.265 437.438 665.25 437.438L686.344 437.438C688.398 437.438 690.063 435.773 690.062 433.719C690.062 431.665 688.398 430 686.344 430L665.25 430ZM715.469 430C713.415 430 711.75 431.665 711.75 433.719C711.75 435.773 713.415 437.437 715.469 437.438L736.562 437.438C743.546 437.438 750.337 439.481 756.812 443.219C763.292 446.959 768.414 451.795 771.906 457.844L782.469 476.094C783.496 477.873 785.752 478.496 787.531 477.469C789.31 476.442 789.933 474.154 788.906 472.375L778.375 454.125C774.183 446.864 768.048 441.138 760.5 436.781C752.955 432.426 744.943 430 736.562 430L715.469 430ZM665.25 448.875C655.741 448.875 644.566 455.329 639.812 463.562L604.156 525.312C599.402 533.547 599.433 546.453 604.188 554.687L639.812 616.438C644.566 624.671 655.741 631.125 665.25 631.125L736.562 631.125C746.071 631.125 757.246 624.671 762 616.438L797.656 554.687C802.411 546.454 802.411 533.547 797.656 525.312L762 463.562C757.246 455.329 746.071 448.875 736.562 448.875C736.423 448.875 665.389 448.875 665.25 448.875ZM665.25 456.312C665.389 456.312 736.423 456.313 736.562 456.312C743.414 456.312 752.138 461.349 755.562 467.281L791.219 529.031C794.645 534.964 794.644 545.036 791.219 550.969L755.562 612.719C752.138 618.651 743.414 623.688 736.562 623.688L665.25 623.688C658.399 623.688 649.675 618.651 646.25 612.719L610.625 550.969C607.2 545.036 607.2 534.964 610.625 529.031L646.25 467.281C649.675 461.349 658.399 456.313 665.25 456.312ZM669.125 471.312C667.051 471.312 664.909 471.865 662.406 473.25C660.008 474.577 658.43 476.215 657.344 478.062C656.847 478.908 625.545 533.141 625.5 533.219C625.44 533.323 625.18 533.742 625.156 533.781C624.148 535.471 623.774 537.073 623.844 539.812C623.93 543.222 624.308 544.749 625.5 546.812C625.965 547.618 649.126 587.677 649.312 588C650.34 589.78 652.595 590.402 654.375 589.375C656.155 588.348 656.777 586.061 655.75 584.281C655.563 583.958 632.434 543.899 631.969 543.094C631.429 542.158 631.338 541.843 631.281 539.625C631.246 538.246 631.302 538.03 631.562 537.594C631.548 537.619 631.858 537.129 631.969 536.938C632.015 536.857 663.27 482.692 663.75 481.875C664.204 481.103 664.899 480.376 666.031 479.75C667.424 478.979 668.304 478.75 669.125 478.75C669.412 478.75 740.779 478.75 741.344 478.75C743.399 478.75 745.063 477.086 745.062 475.031C745.063 472.976 743.399 471.312 741.344 471.312C740.779 471.312 669.412 471.312 669.125 471.312ZM602.031 495.781C600.593 495.603 599.114 496.291 598.344 497.625L587.812 515.875C583.618 523.14 581.719 531.291 581.719 540C581.719 548.715 583.62 556.864 587.812 564.125L598.344 582.406C599.371 584.185 601.659 584.777 603.438 583.75C605.216 582.723 605.839 580.466 604.812 578.688L594.25 560.406C590.756 554.355 589.156 547.48 589.156 540C589.156 532.525 590.754 525.65 594.25 519.594L604.812 501.312C605.839 499.533 605.217 497.277 603.438 496.25C602.993 495.993 602.511 495.841 602.031 495.781ZM799.812 495.781C799.333 495.841 798.851 495.993 798.406 496.25C796.627 497.277 796.005 499.533 797.031 501.312L807.562 519.594C811.054 525.641 812.687 532.509 812.687 540C812.688 547.491 811.055 554.358 807.562 560.406L797.031 578.688C796.004 580.466 796.627 582.723 798.406 583.75C800.185 584.777 802.442 584.185 803.469 582.406L814.031 564.125C818.223 556.865 820.094 548.724 820.094 540C820.094 531.276 818.222 523.133 814.031 515.875L803.469 497.625C802.699 496.291 801.251 495.603 799.812 495.781ZM675.844 497.531C672.486 497.531 669.75 500.236 669.75 503.594L669.75 528.906C669.75 532.264 672.486 535 675.844 535L770.312 535C772.367 535 774.031 533.336 774.031 531.281C774.031 529.226 772.367 527.563 770.312 527.562L677.219 527.562L677.219 504.969L751.094 504.969C753.149 504.969 754.813 503.305 754.812 501.25C754.812 499.195 753.149 497.531 751.094 497.531L675.844 497.531ZM675.938 554.062C672.528 554.062 669.75 556.809 669.75 560.219L669.75 608.219C669.75 610.274 671.445 611.969 673.5 611.969C675.555 611.969 677.219 610.274 677.219 608.219L677.219 561.5L715.687 561.5C717.742 561.5 719.406 559.836 719.406 557.781C719.406 555.726 717.742 554.063 715.687 554.062L675.938 554.062ZM741.344 554.062C739.289 554.062 737.625 555.726 737.625 557.781C737.625 559.836 739.289 561.5 741.344 561.5L760.844 561.5C762.899 561.5 764.563 559.836 764.562 557.781C764.563 555.726 762.899 554.063 760.844 554.062L741.344 554.062ZM615.688 602.094C615.208 602.153 614.726 602.274 614.281 602.531C612.503 603.558 611.879 605.846 612.906 607.625L623.469 625.906C627.66 633.165 633.75 638.856 641.312 643.219C648.861 647.574 656.872 650 665.25 650L686.344 650C688.398 650 690.063 648.335 690.062 646.281C690.062 644.227 688.398 642.562 686.344 642.562L665.25 642.562C658.268 642.563 651.511 640.52 645.031 636.781C638.537 633.034 633.396 628.233 629.906 622.187L619.375 603.906C618.605 602.572 617.126 601.915 615.688 602.094ZM786.156 602.094C784.718 601.916 783.239 602.572 782.469 603.906L771.906 622.187C768.421 628.224 763.31 633.031 756.812 636.781C750.339 640.518 743.55 642.563 736.562 642.562L715.469 642.562C713.415 642.562 711.75 644.227 711.75 646.281C711.75 648.335 713.415 650 715.469 650L736.562 650C744.947 650 752.958 647.572 760.5 643.219C768.065 638.852 774.189 633.157 778.375 625.906L788.906 607.625C789.933 605.846 789.311 603.558 787.531 602.531C787.086 602.275 786.636 602.153 786.156 602.094Z" fill="#5309e8" fill-rule="nonzero" opacity="1" stroke="none"/>
<path d="M882.95 461.922L882.95 501.571L889.979 501.571L889.979 485.246L908.948 485.246L908.948 479.392L889.979 479.392L889.979 468.95L911.249 468.95L911.249 461.922L882.95 461.922ZM916.048 461.922L916.048 501.571L923.076 501.571L923.076 461.922L916.048 461.922ZM1004.6 471.669L1002.48 471.737C998.977 471.842 995.553 474.265 993.053 476.994L993.053 472.41L986.028 472.41L986.028 501.571L993.053 501.571L993.053 488.542L993.056 488.542C993.055 487.628 992.927 482.973 996.087 480.737C999.783 478.122 1004.64 478.697 1004.64 478.697L1004.6 471.669ZM1025.86 471.816C1021.71 471.923 1018.47 473.833 1016.18 476.486L1016.18 472.41L1009.16 472.41L1009.16 508.538L1016.18 508.538L1016.18 496.991C1018.49 499.819 1021.75 501.886 1025.86 501.8C1033.27 501.644 1039.46 495.171 1039.46 486.81C1039.46 478.449 1033.27 471.624 1025.86 471.816ZM967.359 472.396C962.858 472.52 958.946 475.038 954.52 481.564C949.67 474.466 945.123 471.914 940.199 472.51C931.362 473.581 925.981 482.64 928.415 491.201C929.343 494.463 931.181 497.207 934.015 499.202C935.931 500.551 938.492 501.499 940.36 501.582C945.351 501.802 949.844 499.188 954.509 492.503C959.33 499.405 963.953 502.039 968.816 501.557C972.841 501.157 975.867 499.077 978.284 496.017C980.304 493.461 981.307 489.829 981.237 486.541C981.213 485.446 981.061 484.384 980.797 483.417C980.096 480.855 979.413 479.352 977.733 477.305C975.343 474.393 971.929 472.552 968.268 472.403C967.963 472.39 967.659 472.387 967.359 472.396ZM1024.75 477.989C1029.43 477.989 1033.32 481.868 1033.32 486.77C1033.32 491.673 1029.43 495.566 1024.75 495.566C1020.07 495.566 1016.18 491.673 1016.18 486.77C1016.18 481.868 1020.07 477.989 1024.75 477.989ZM968.036 478.243C969.953 478.321 971.838 479.341 973.21 481.013C974.295 482.335 974.648 483.133 975.15 484.967C975.735 487.108 975.175 490.497 973.686 492.381C972.162 494.311 970.415 495.507 968.233 495.724C966.982 495.848 965.806 495.566 964.328 494.554C962.401 493.234 960.269 490.755 957.962 487.053C960.336 483.172 962.435 480.653 964.278 479.367C965.619 478.432 966.618 478.185 968.036 478.243ZM941.827 478.293C942.731 478.339 943.609 478.649 944.665 479.367C946.569 480.661 948.713 483.2 951.07 487.064C948.835 490.666 946.756 493.085 944.847 494.407C943.335 495.454 942.07 495.788 940.614 495.724C939.92 495.693 938.422 495.153 937.383 494.421C935.696 493.233 934.626 491.624 934.051 489.601C932.565 484.373 935.788 478.949 940.907 478.329C941.223 478.291 941.526 478.278 941.827 478.293Z" fill="#5309e8" fill-rule="nonzero" opacity="1" stroke="none"/>
<path d="M1138.81 520.188C1136.34 520.187 1134.27 521.012 1132.59 522.688C1130.92 524.363 1130.06 526.433 1130.06 528.906C1130.06 531.38 1130.92 533.449 1132.59 535.125C1134.27 536.801 1136.34 537.656 1138.81 537.656C1141.21 537.656 1143.23 536.801 1144.91 535.125C1146.58 533.449 1147.44 531.38 1147.44 528.906C1147.44 526.433 1146.58 524.363 1144.91 522.688C1143.23 521.012 1141.21 520.188 1138.81 520.188ZM882.938 529.156L882.938 612.344L896.594 612.344L896.594 579.062L907 579.062L926.156 612.344L942.438 612.344L921.844 577.875C928.386 576.279 933.223 573.272 936.375 568.844C939.527 564.415 941.125 559.488 941.125 554.062C941.125 549.435 940.007 545.219 937.812 541.469C935.618 537.719 932.335 534.734 927.906 532.5C923.478 530.266 918.071 529.156 911.688 529.156L882.938 529.156ZM1092.81 530L1092.81 546.375L1085.03 546.375L1085.03 557.531L1092.81 557.531L1092.81 594.031C1092.81 600.494 1094.45 605.159 1097.72 608.031C1100.99 610.904 1105.7 612.344 1111.84 612.344L1122.62 612.344L1122.62 600.969L1114.25 600.969C1111.46 600.969 1109.47 600.421 1108.31 599.344C1107.16 598.267 1106.59 596.505 1106.59 594.031L1106.59 557.531L1122.62 557.531L1122.62 546.375L1106.59 546.375L1106.59 530L1092.81 530ZM896.594 540.281L911.688 540.281C916.874 540.281 920.728 541.504 923.281 543.938C925.835 546.371 927.125 549.754 927.125 554.062C927.125 558.371 925.812 561.791 923.219 564.344C920.626 566.897 916.794 568.156 911.688 568.156L896.594 568.156L896.594 540.281ZM1052.91 545.312C1049 545.312 1045.31 546.078 1041.84 547.594C1038.37 549.11 1035.52 551.225 1033.28 553.938L1033.28 546.375L1019.66 546.375L1019.66 612.344L1033.28 612.344L1033.28 575.469C1033.28 569.564 1034.79 565.027 1037.78 561.875C1040.77 558.723 1044.83 557.156 1049.94 557.156C1055.04 557.156 1059.05 558.723 1062 561.875C1064.95 565.027 1066.44 569.564 1066.44 575.469L1066.44 612.344L1079.97 612.344L1079.97 573.438C1079.97 567.453 1078.81 562.354 1076.5 558.125C1074.19 553.896 1070.95 550.686 1066.84 548.531C1062.73 546.377 1058.09 545.312 1052.91 545.312ZM1189.97 545.312C1186.06 545.312 1182.4 546.078 1178.97 547.594C1175.54 549.11 1172.7 551.225 1170.47 553.938L1170.47 546.375L1156.81 546.375L1156.81 612.344L1170.47 612.344L1170.47 575.469C1170.47 569.564 1171.95 565.027 1174.94 561.875C1177.93 558.723 1181.99 557.156 1187.09 557.156C1192.2 557.156 1196.24 558.723 1199.19 561.875C1202.14 565.027 1203.59 569.564 1203.59 575.469L1203.59 612.344L1217.12 612.344L1217.12 575.469C1217.12 569.564 1218.63 565.027 1221.62 561.875C1224.62 558.723 1228.67 557.156 1233.78 557.156C1238.89 557.156 1242.89 558.723 1245.84 561.875C1248.8 565.027 1250.28 569.564 1250.28 575.469L1250.28 612.344L1263.81 612.344L1263.81 573.438C1263.81 567.453 1262.64 562.354 1260.28 558.125C1257.93 553.896 1254.7 550.686 1250.59 548.531C1246.48 546.377 1241.84 545.312 1236.66 545.312C1231.79 545.312 1227.23 546.49 1223 548.844C1218.77 551.198 1215.65 554.354 1213.66 558.344C1211.42 554.115 1208.24 550.89 1204.09 548.656C1199.94 546.422 1195.23 545.312 1189.97 545.312ZM1306.22 545.312C1299.76 545.312 1294.02 546.707 1289.03 549.5C1284.04 552.293 1280.16 556.26 1277.41 561.406C1274.65 566.553 1273.28 572.53 1273.28 579.312C1273.28 586.095 1274.7 592.041 1277.53 597.188C1280.36 602.334 1284.29 606.324 1289.28 609.156C1294.27 611.989 1299.92 613.406 1306.22 613.406C1313.96 613.406 1320.43 611.464 1325.66 607.594C1330.88 603.724 1334.51 598.783 1336.5 592.719L1321.75 592.719C1318.72 598.863 1313.56 601.906 1306.22 601.906C1301.11 601.906 1296.79 600.317 1293.28 597.125C1289.77 593.933 1287.81 589.704 1287.41 584.438L1337.81 584.438C1338.13 582.443 1338.28 580.223 1338.28 577.75C1338.28 571.367 1336.93 565.72 1334.22 560.812C1331.51 555.905 1327.71 552.088 1322.84 549.375C1317.98 546.662 1312.44 545.312 1306.22 545.312ZM948.031 546.375L948.031 585.156C948.031 591.14 949.209 596.271 951.562 600.5C953.916 604.729 957.141 607.908 961.25 610.062C965.359 612.217 970.001 613.281 975.188 613.281C979.097 613.281 982.779 612.525 986.25 610.969C989.721 609.413 992.533 607.275 994.688 604.562L994.688 612.344L1008.34 612.344L1008.34 546.375L994.688 546.375L994.688 583.125C994.687 589.029 993.211 593.567 990.219 596.719C987.227 599.87 983.169 601.438 978.063 601.438C972.956 601.438 968.921 599.87 965.969 596.719C963.017 593.567 961.531 589.029 961.531 583.125L961.531 546.375L948.031 546.375ZM1131.88 546.375L1131.88 612.344L1145.5 612.344L1145.5 546.375L1131.88 546.375ZM1305.59 556.812C1310.78 556.812 1315.15 558.312 1318.66 561.344C1322.17 564.376 1323.95 568.411 1324.03 573.438L1287.53 573.438C1288.17 568.331 1290.18 564.273 1293.53 561.281C1296.88 558.289 1300.89 556.812 1305.59 556.812Z" fill="#5309e8" fill-rule="nonzero" opacity="1" stroke="none"/>
</g>
</g>
</svg>
